<svg version="1.0" xmlns="http://www.w3.org/2000/svg"
 width="32" height="32" viewBox="0 0 1250.000000 1280.000000"
 preserveAspectRatio="xMidYMid meet">
<metadata>
Created by potrace 1.15, written by Peter Selinger 2001-2017
</metadata>
<g transform="translate(0.000000,1280.000000) scale(0.100000,-0.100000)"
fill="#000000" stroke="none">
<path d="M9230 12756 c-204 -83 -478 -224 -685 -355 -494 -312 -903 -714
-1262 -1243 -81 -119 -183 -285 -183 -297 0 -5 73 -62 162 -128 90 -65 242
-181 338 -257 96 -76 229 -180 295 -229 159 -120 206 -159 365 -307 74 -70
202 -187 285 -261 177 -159 585 -549 584 -558 0 -3 -59 -53 -132 -111 -662
-528 -2196 -1903 -3257 -2919 -129 -123 -597 -583 -1040 -1021 -1633 -1615
-2423 -2364 -3270 -3096 -546 -472 -919 -767 -1220 -962 -214 -139 -205 -131
-205 -189 0 -33 10 -68 32 -113 113 -230 525 -623 730 -696 l51 -18 89 58
c251 167 587 428 913 711 464 402 687 619 2345 2280 2002 2004 2524 2497 3325
3136 475 379 807 604 1440 974 732 428 948 574 1144 774 49 50 90 90 91 89 0
-2 64 -79 141 -173 77 -93 223 -272 323 -397 101 -126 185 -228 188 -228 27 0
1673 1467 1673 1491 0 13 -243 296 -570 664 -528 594 -1204 1415 -1610 1955
-68 91 -177 233 -241 316 -118 153 -212 287 -264 379 -15 28 -87 142 -160 255
-73 113 -167 268 -210 345 -43 77 -83 147 -89 156 -10 15 -22 13 -116 -25z"/>
</g>
</svg>
